<svg id="Layer_1" data-name="Layer 1" xmlns="http://www.w3.org/2000/svg" xmlns:xlink="http://www.w3.org/1999/xlink" viewBox="0 0 128 128"><defs><style>.cls-1{fill:url(#radial-gradient);}.cls-2{fill:#fff;}.cls-3{fill:url(#linear-gradient);}</style><radialGradient id="radial-gradient" cx="64" cy="64.27" r="64" gradientUnits="userSpaceOnUse"><stop offset="0" stop-color="#003f5a"/><stop offset="0.55" stop-color="#16294b"/><stop offset="1" stop-color="#182622"/></radialGradient><linearGradient id="linear-gradient" x1="40.68" y1="64.27" x2="87.32" y2="64.27" gradientUnits="userSpaceOnUse"><stop offset="0" stop-color="#5b83c3"/><stop offset="0.79" stop-color="#6bbdd7"/><stop offset="1" stop-color="#70cddd"/></linearGradient></defs><title>128x128</title><path class="cls-1" d="M0,64.27A64,64,0,1,0,35.08,7.16l-1.29.67A64.2,64.2,0,0,0,14.53,23.66q-.45.54-.87,1.09A63.72,63.72,0,0,0,0,64.27Z"/><path class="cls-2" d="M67.59,117.15a53.59,53.59,0,0,0,18.49-4.35,50.87,50.87,0,0,0,8.27-4.59,50.72,50.72,0,0,0,13.29-13.29c.43-.66.88-1.31,1.29-2s.82-1.35,1.19-2,.75-1.39,1.09-2.1l.51-1.07c.17-.36.35-.71.5-1.08a53.65,53.65,0,0,0,4.35-18.49,45.24,45.24,0,0,1-3.09,19A47.27,47.27,0,0,1,109,95.84a47.54,47.54,0,0,1-13.75,13.74,47.23,47.23,0,0,1-8.67,4.47A45.28,45.28,0,0,1,67.59,117.15Z"/><path class="cls-2" d="M112.78,49.36c-1.32.89-1.88,3.48-1.37,6.44q.09.53.23,1.07l.06.21c.09.32.19.64.29.94l-.67,1,1,4.91,1.75-2.32.22.23a4.86,4.86,0,0,0,.65.53,2.21,2.21,0,0,1,2.22-.56,4.89,4.89,0,0,0,.32-.8l.08-.28L120.18,62l-1.48-4.79-1.08-.58c-.05-.32-.12-.64-.19-1l-.05-.22q-.14-.54-.31-1C116.1,51.52,114.37,49.51,112.78,49.36Z"/><path class="cls-3" d="M40.68,39.89H54.75l18.36,27v-27h14.2V88.65H73.11L54.85,61.88V88.65H40.68Z"/><rect class="cls-2" x="80.18" y="17.12" width="2.59" height="2.59" transform="translate(10.84 63.01) rotate(-45)"/><polygon class="cls-2" points="28.36 35.12 21.92 34.41 28.36 33.7 29.07 27.26 29.79 33.7 36.23 34.41 29.79 35.12 29.07 41.57 28.36 35.12"/><rect class="cls-2" x="27.78" y="93.62" width="2.59" height="2.59" transform="translate(-58.6 48.36) rotate(-45)"/></svg>