<svg id="Layer_1" data-name="Layer 1" xmlns="http://www.w3.org/2000/svg" xmlns:xlink="http://www.w3.org/1999/xlink" viewBox="0 0 144 144"><defs><style>.cls-1{fill:url(#radial-gradient);}.cls-2{fill:#fff;}.cls-3{fill:url(#linear-gradient);}</style><radialGradient id="radial-gradient" cx="72" cy="72.27" r="72" gradientUnits="userSpaceOnUse"><stop offset="0" stop-color="#003f5a"/><stop offset="0.55" stop-color="#16294b"/><stop offset="1" stop-color="#182622"/></radialGradient><linearGradient id="linear-gradient" x1="45.77" y1="72.27" x2="98.23" y2="72.27" gradientUnits="userSpaceOnUse"><stop offset="0" stop-color="#5b83c3"/><stop offset="0.79" stop-color="#6bbdd7"/><stop offset="1" stop-color="#70cddd"/></linearGradient></defs><title>144x144</title><path class="cls-1" d="M0,72.27A72,72,0,1,0,39.47,8c-.49.25-1,.5-1.45.76A72.22,72.22,0,0,0,16.35,26.59q-.5.6-1,1.22A71.68,71.68,0,0,0,0,72.27Z"/><path class="cls-2" d="M76,131.76a60.29,60.29,0,0,0,20.8-4.9,57.22,57.22,0,0,0,9.3-5.16,57.06,57.06,0,0,0,14.95-15c.48-.74,1-1.47,1.45-2.23s.92-1.52,1.34-2.3.84-1.56,1.23-2.36l.58-1.2c.19-.4.4-.8.56-1.21a60.35,60.35,0,0,0,4.9-20.8A50.89,50.89,0,0,1,127.67,98a53.18,53.18,0,0,1-5,9.75,53.49,53.49,0,0,1-15.46,15.46,53.13,53.13,0,0,1-9.75,5A50.94,50.94,0,0,1,76,131.76Z"/><path class="cls-2" d="M126.88,55.5c-1.49,1-2.12,3.92-1.54,7.24q.1.59.26,1.2l.06.24c.1.36.21.72.33,1.06l-.76,1.16,1.11,5.52,2-2.61.25.25a5.46,5.46,0,0,0,.73.6,2.48,2.48,0,0,1,2.49-.63,5.5,5.5,0,0,0,.36-.9l.09-.32,3,1.36-1.66-5.38-1.22-.66c-.06-.36-.13-.72-.22-1.09L132,62.3q-.15-.61-.35-1.18C130.61,57.93,128.67,55.67,126.88,55.5Z"/><path class="cls-3" d="M45.77,44.84H61.6L82.25,75.19V44.84h16V99.7h-16L61.71,69.58V99.7H45.77Z"/><rect class="cls-2" x="90.21" y="19.22" width="2.91" height="2.91" transform="translate(12.22 70.87) rotate(-45)"/><polygon class="cls-2" points="31.91 39.48 24.66 38.68 31.91 37.88 32.71 30.63 33.51 37.88 40.76 38.68 33.51 39.48 32.71 46.73 31.91 39.48"/><rect class="cls-2" x="31.25" y="105.29" width="2.91" height="2.91" transform="translate(-65.9 54.39) rotate(-45)"/></svg>