<svg id="Layer_1" data-name="Layer 1" xmlns="http://www.w3.org/2000/svg" xmlns:xlink="http://www.w3.org/1999/xlink" viewBox="0 0 152 152"><defs><style>.cls-1{fill:url(#radial-gradient);}.cls-2{fill:#fff;}.cls-3{fill:url(#linear-gradient);}</style><radialGradient id="radial-gradient" cx="76" cy="76.27" r="76" gradientUnits="userSpaceOnUse"><stop offset="0" stop-color="#003f5a"/><stop offset="0.55" stop-color="#16294b"/><stop offset="1" stop-color="#182622"/></radialGradient><linearGradient id="linear-gradient" x1="48.31" y1="76.27" x2="103.69" y2="76.27" gradientUnits="userSpaceOnUse"><stop offset="0" stop-color="#5b83c3"/><stop offset="0.79" stop-color="#6bbdd7"/><stop offset="1" stop-color="#70cddd"/></linearGradient></defs><title>152x152</title><path class="cls-1" d="M0,76.27A76,76,0,1,0,41.66,8.45c-.51.26-1,.52-1.53.8a76.23,76.23,0,0,0-22.87,18.8q-.53.64-1,1.29A75.67,75.67,0,0,0,0,76.27Z"/><path class="cls-2" d="M80.26,139.06a63.63,63.63,0,0,0,22-5.17,60.4,60.4,0,0,0,9.82-5.45,60.23,60.23,0,0,0,15.78-15.78c.51-.78,1-1.56,1.53-2.35s1-1.6,1.42-2.43.89-1.65,1.3-2.49l.61-1.27c.2-.43.42-.84.59-1.28a63.71,63.71,0,0,0,5.17-22,53.72,53.72,0,0,1-3.67,22.57,56.14,56.14,0,0,1-5.31,10.29,56.46,56.46,0,0,1-16.32,16.32,56.08,56.08,0,0,1-10.29,5.31A53.77,53.77,0,0,1,80.26,139.06Z"/><path class="cls-2" d="M133.93,58.57c-1.57,1.05-2.23,4.13-1.63,7.64q.11.63.27,1.27l.07.26c.1.38.22.76.35,1.12l-.8,1.22,1.17,5.83,2.07-2.76.26.27a5.77,5.77,0,0,0,.77.63,2.62,2.62,0,0,1,2.63-.67,5.81,5.81,0,0,0,.38-.95c0-.11.07-.22.09-.34l3.14,1.43L141,67.85l-1.29-.69c-.06-.38-.14-.76-.23-1.15l-.06-.26q-.16-.64-.37-1.24C137.87,61.13,135.82,58.74,133.93,58.57Z"/><path class="cls-3" d="M48.31,47.32H65l21.8,32v-32h16.87v57.91H86.82L65.14,73.43v31.8H48.31Z"/><rect class="cls-2" x="95.22" y="20.28" width="3.08" height="3.08" transform="translate(12.91 74.81) rotate(-45)"/><polygon class="cls-2" points="33.68 41.66 26.03 40.81 33.68 39.97 34.52 32.32 35.37 39.97 43.02 40.81 35.37 41.66 34.52 49.31 33.68 41.66"/><rect class="cls-2" x="32.99" y="111.12" width="3.08" height="3.08" transform="translate(-69.55 57.41) rotate(-45)"/></svg>