<svg id="Layer_1" data-name="Layer 1" xmlns="http://www.w3.org/2000/svg" xmlns:xlink="http://www.w3.org/1999/xlink" viewBox="0 0 16 16"><defs><style>.cls-1{fill:url(#radial-gradient);}.cls-2{fill:#fff;}.cls-3{fill:url(#linear-gradient);}</style><radialGradient id="radial-gradient" cx="7.97" cy="8" r="8" gradientUnits="userSpaceOnUse"><stop offset="0" stop-color="#003f5a"/><stop offset="0.55" stop-color="#16294b"/><stop offset="1" stop-color="#182622"/></radialGradient><linearGradient id="linear-gradient" x1="5.06" y1="8" x2="10.89" y2="8" gradientUnits="userSpaceOnUse"><stop offset="0" stop-color="#5b83c3"/><stop offset="0.79" stop-color="#6bbdd7"/><stop offset="1" stop-color="#70cddd"/></linearGradient></defs><title>16x16</title><path class="cls-1" d="M0,8A8,8,0,1,0,4.36.86L4.2.95a8,8,0,0,0-2.41,2l-.11.14A8,8,0,0,0,0,8Z"/><path class="cls-2" d="M8.42,14.61a6.7,6.7,0,0,0,2.31-.54,6.36,6.36,0,0,0,1-.57,6.34,6.34,0,0,0,1.66-1.66l.16-.25.15-.26.14-.26.06-.13L14,10.8a6.71,6.71,0,0,0,.54-2.31,5.65,5.65,0,0,1-.39,2.38,5.91,5.91,0,0,1-.56,1.08,5.94,5.94,0,0,1-1.72,1.72,5.9,5.9,0,0,1-1.08.56A5.66,5.66,0,0,1,8.42,14.61Z"/><path class="cls-2" d="M14.07,6.14a.84.84,0,0,0-.17.8l0,.13v0l0,.12-.08.13L14,8l.22-.29,0,0,.08.07a.28.28,0,0,1,.28-.07l0-.1v0l.33.15-.18-.6L14.68,7l0-.12v0l0-.13C14.49,6.41,14.27,6.16,14.07,6.14Z"/><path class="cls-3" d="M5.06,5H6.82l2.3,3.37V5h1.78V11H9.11L6.83,7.7V11H5.06Z"/><rect class="cls-2" x="10" y="2.11" width="0.32" height="0.32" transform="translate(1.37 7.85) rotate(-45)"/><polygon class="cls-2" points="3.52 4.36 2.71 4.27 3.52 4.18 3.61 3.37 3.7 4.18 4.5 4.27 3.7 4.36 3.61 5.16 3.52 4.36"/><rect class="cls-2" x="3.45" y="11.67" width="0.32" height="0.32" transform="translate(-7.31 6.02) rotate(-45)"/></svg>