<svg id="Layer_1" data-name="Layer 1" xmlns="http://www.w3.org/2000/svg" xmlns:xlink="http://www.w3.org/1999/xlink" viewBox="0 0 192 192"><defs><style>.cls-1{fill:url(#radial-gradient);}.cls-2{fill:#fff;}.cls-3{fill:url(#linear-gradient);}</style><radialGradient id="radial-gradient" cx="96" cy="96.27" r="96" gradientUnits="userSpaceOnUse"><stop offset="0" stop-color="#003f5a"/><stop offset="0.55" stop-color="#16294b"/><stop offset="1" stop-color="#182622"/></radialGradient><linearGradient id="linear-gradient" x1="61.02" y1="96.27" x2="130.98" y2="96.27" gradientUnits="userSpaceOnUse"><stop offset="0" stop-color="#5b83c3"/><stop offset="0.79" stop-color="#6bbdd7"/><stop offset="1" stop-color="#70cddd"/></linearGradient></defs><title>192x192</title><path class="cls-1" d="M0,96.27A95.95,95.95,0,1,0,52.62,10.61c-.65.33-1.29.66-1.94,1A96.3,96.3,0,0,0,21.8,35.36q-.67.81-1.31,1.63A95.58,95.58,0,0,0,0,96.27Z"/><path class="cls-2" d="M101.38,175.59a80.38,80.38,0,0,0,27.73-6.53,76.3,76.3,0,0,0,12.4-6.88,76.09,76.09,0,0,0,19.93-19.94c.64-1,1.32-2,1.94-3s1.22-2,1.79-3.06,1.13-2.08,1.64-3.15l.77-1.6c.25-.54.53-1.06.74-1.61a80.47,80.47,0,0,0,6.53-27.73,67.86,67.86,0,0,1-4.64,28.51,70.91,70.91,0,0,1-6.71,13,71.32,71.32,0,0,1-20.62,20.61,70.84,70.84,0,0,1-13,6.71A67.92,67.92,0,0,1,101.38,175.59Z"/><path class="cls-2" d="M169.18,73.91c-2,1.33-2.82,5.22-2.05,9.66q.14.79.34,1.6l.08.32c.13.49.28,1,.44,1.41l-1,1.55,1.48,7.37,2.62-3.48.33.34a7.28,7.28,0,0,0,1,.8,3.31,3.31,0,0,1,3.32-.85,7.33,7.33,0,0,0,.48-1.19c0-.14.08-.28.12-.42l4,1.81-2.22-7.18-1.63-.88c-.08-.48-.17-1-.29-1.45l-.08-.32q-.21-.81-.47-1.57C174.15,77.15,171.56,74.13,169.18,73.91Z"/><path class="cls-3" d="M61,59.7H82.13l27.54,40.47V59.7H131v73.15H109.67L82.28,92.68v40.16H61Z"/><rect class="cls-2" x="120.28" y="25.54" width="3.89" height="3.89" transform="translate(16.36 94.47) rotate(-45)"/><polygon class="cls-2" points="42.54 52.55 32.88 51.48 42.54 50.41 43.61 40.75 44.68 50.41 54.34 51.48 44.68 52.55 43.61 62.21 42.54 52.55"/><rect class="cls-2" x="41.67" y="140.3" width="3.89" height="3.89" transform="translate(-87.8 72.5) rotate(-45)"/></svg>