<svg id="Layer_1" data-name="Layer 1" xmlns="http://www.w3.org/2000/svg" xmlns:xlink="http://www.w3.org/1999/xlink" viewBox="0 0 256 256"><defs><style>.cls-1{fill:url(#radial-gradient);}.cls-2{fill:#fff;}.cls-3{fill:url(#linear-gradient);}</style><radialGradient id="radial-gradient" cx="128" cy="128.27" r="127.73" gradientUnits="userSpaceOnUse"><stop offset="0" stop-color="#003f5a"/><stop offset="0.55" stop-color="#16294b"/><stop offset="1" stop-color="#182622"/></radialGradient><linearGradient id="linear-gradient" x1="81.46" y1="128.27" x2="174.54" y2="128.27" gradientUnits="userSpaceOnUse"><stop offset="0" stop-color="#5b83c3"/><stop offset="0.79" stop-color="#6bbdd7"/><stop offset="1" stop-color="#70cddd"/></linearGradient></defs><title>256x256</title><path class="cls-1" d="M.27,128.27a127.66,127.66,0,1,0,70-114c-.86.44-1.72.88-2.58,1.35A128.12,128.12,0,0,0,29.27,47.23q-.89,1.07-1.74,2.17A127.17,127.17,0,0,0,.27,128.27Z"/><path class="cls-2" d="M135.16,233.8a107,107,0,0,0,36.9-8.68,101.52,101.52,0,0,0,16.5-9.16,101.23,101.23,0,0,0,26.52-26.53c.86-1.32,1.75-2.61,2.58-4s1.63-2.69,2.38-4.08,1.5-2.77,2.18-4.19l1-2.13c.33-.71.7-1.41,1-2.15A107.07,107.07,0,0,0,232.93,136,90.29,90.29,0,0,1,226.75,174a94.35,94.35,0,0,1-8.93,17.3A94.89,94.89,0,0,1,190.4,218.7a94.26,94.26,0,0,1-17.29,8.93A90.37,90.37,0,0,1,135.16,233.8Z"/><path class="cls-2" d="M225.36,98.52c-2.64,1.77-3.75,6.95-2.73,12.85q.18,1.05.46,2.13l.11.43c.18.65.37,1.27.58,1.88l-1.34,2.06,2,9.8L227.9,123l.44.45a9.69,9.69,0,0,0,1.29,1.06,4.41,4.41,0,0,1,4.42-1.13,9.76,9.76,0,0,0,.64-1.59c.06-.18.11-.37.16-.56l5.28,2.41-3-9.55L235,113c-.1-.64-.23-1.28-.39-1.93l-.11-.43q-.27-1.08-.62-2.09C232,102.83,228.53,98.81,225.36,98.52Z"/><path class="cls-3" d="M81.46,79.61h28.08l36.65,53.84V79.61h28.35v97.32H146.19l-36.45-53.44v53.44H81.46Z"/><rect class="cls-2" x="160.3" y="34.16" width="5.17" height="5.17" transform="translate(21.72 125.94) rotate(-45)"/><polygon class="cls-2" points="56.87 70.1 44.02 68.68 56.87 67.26 58.29 54.4 59.72 67.26 72.57 68.68 59.72 70.1 58.29 82.96 56.87 70.1"/><rect class="cls-2" x="55.71" y="186.85" width="5.17" height="5.17" transform="translate(-116.87 96.7) rotate(-45)"/></svg>