<svg id="Layer_1" data-name="Layer 1" xmlns="http://www.w3.org/2000/svg" xmlns:xlink="http://www.w3.org/1999/xlink" viewBox="0 0 384 384"><defs><style>.cls-1{fill:url(#radial-gradient);}.cls-2{fill:#fff;}.cls-3{fill:url(#linear-gradient);}</style><radialGradient id="radial-gradient" cx="192" cy="192.27" r="192.27" gradientUnits="userSpaceOnUse"><stop offset="0" stop-color="#003f5a"/><stop offset="0.55" stop-color="#16294b"/><stop offset="1" stop-color="#182622"/></radialGradient><linearGradient id="linear-gradient" x1="121.95" y1="192.27" x2="262.05" y2="192.27" gradientUnits="userSpaceOnUse"><stop offset="0" stop-color="#5b83c3"/><stop offset="0.79" stop-color="#6bbdd7"/><stop offset="1" stop-color="#70cddd"/></linearGradient></defs><title>384x384</title><path class="cls-1" d="M-.27,192.27C-.27,298.46,85.81,384.54,192,384.54s192.27-86.08,192.27-192.27S298.19,0,192,0a191.42,191.42,0,0,0-86.88,20.71c-1.3.66-2.59,1.33-3.88,2A192.86,192.86,0,0,0,43.38,70.28Q42,71.89,40.76,73.55A191.43,191.43,0,0,0-.27,192.27Z"/><path class="cls-2" d="M202.78,351.12a161,161,0,0,0,55.54-13.07,152.81,152.81,0,0,0,24.84-13.79,152.39,152.39,0,0,0,39.92-39.93c1.29-2,2.64-3.93,3.88-5.95s2.45-4.06,3.59-6.14,2.25-4.17,3.29-6.31l1.54-3.21c.5-1.08,1.06-2.13,1.49-3.23A161.17,161.17,0,0,0,349.94,204a135.91,135.91,0,0,1-9.29,57.11,142,142,0,0,1-13.44,26,142.84,142.84,0,0,1-41.29,41.28,141.89,141.89,0,0,1-26,13.44A136,136,0,0,1,202.78,351.12Z"/><path class="cls-2" d="M338.56,147.49c-4,2.67-5.65,10.46-4.11,19.34q.27,1.59.69,3.21l.17.65c.26,1,.56,1.92.88,2.83l-2,3.1,3,14.75,5.25-7c.22.23.44.46.66.68a14.59,14.59,0,0,0,1.94,1.59,6.63,6.63,0,0,1,6.66-1.69,14.69,14.69,0,0,0,1-2.39c.09-.28.17-.56.24-.85l7.94,3.62L356.34,171l-3.26-1.76c-.16-1-.35-1.93-.58-2.91l-.16-.65q-.41-1.62-.93-3.15C348.52,154,343.33,147.93,338.56,147.49Z"/><path class="cls-3" d="M121.95,119h42.27l55.16,81V119h42.67v146.5H219.38l-54.86-80.44v80.44H121.95Z"/><rect class="cls-2" x="240.62" y="50.61" width="7.78" height="7.78" transform="translate(33.08 188.86) rotate(-45)"/><polygon class="cls-2" points="84.93 104.71 65.58 102.57 84.93 100.43 87.07 81.08 89.21 100.43 108.57 102.57 89.21 104.71 87.07 124.06 84.93 104.71"/><rect class="cls-2" x="83.18" y="280.45" width="7.78" height="7.78" transform="translate(-175.55 144.85) rotate(-45)"/></svg>