<svg id="Layer_1" data-name="Layer 1" xmlns="http://www.w3.org/2000/svg" xmlns:xlink="http://www.w3.org/1999/xlink" viewBox="0 0 512 512"><defs><style>.cls-1{fill:url(#radial-gradient);}.cls-2{fill:#fff;}.cls-3{fill:url(#linear-gradient);}</style><radialGradient id="radial-gradient" cx="256" cy="256.27" r="256.27" gradientUnits="userSpaceOnUse"><stop offset="0" stop-color="#003f5a"/><stop offset="0.55" stop-color="#16294b"/><stop offset="1" stop-color="#182622"/></radialGradient><linearGradient id="linear-gradient" x1="162.63" y1="256.27" x2="349.37" y2="256.27" gradientUnits="userSpaceOnUse"><stop offset="0" stop-color="#5b83c3"/><stop offset="0.79" stop-color="#6bbdd7"/><stop offset="1" stop-color="#70cddd"/></linearGradient></defs><title>512x512</title><path class="cls-1" d="M-.27,256.28C-.27,397.81,114.47,512.54,256,512.54S512.27,397.81,512.27,256.28,397.54,0,256,0a255.13,255.13,0,0,0-115.8,27.6c-1.73.88-3.46,1.77-5.17,2.7A257.06,257.06,0,0,0,57.92,93.68q-1.78,2.15-3.5,4.36A255.14,255.14,0,0,0-.27,256.28Z"/><path class="cls-2" d="M270.37,468a214.58,214.58,0,0,0,74-17.42,203.68,203.68,0,0,0,33.11-18.38A203.11,203.11,0,0,0,430.71,379c1.72-2.65,3.52-5.24,5.17-7.93s3.27-5.41,4.78-8.18,3-5.56,4.38-8.41l2-4.28c.67-1.43,1.41-2.84,2-4.31a214.82,214.82,0,0,0,17.43-74A181.14,181.14,0,0,1,454.14,348a189.29,189.29,0,0,1-17.91,34.7,190.38,190.38,0,0,1-55,55,189.12,189.12,0,0,1-34.7,17.91A181.31,181.31,0,0,1,270.37,468Z"/><path class="cls-2" d="M451.34,196.58c-5.3,3.56-7.53,13.94-5.48,25.78q.36,2.11.91,4.28l.23.86c.35,1.3.75,2.55,1.17,3.77l-2.69,4.13,4,19.66,7-9.3c.29.31.59.62.88.9a19.44,19.44,0,0,0,2.59,2.13,8.84,8.84,0,0,1,8.87-2.26,19.57,19.57,0,0,0,1.28-3.19c.11-.37.22-.74.32-1.13L481,247,475,227.87l-4.34-2.34c-.21-1.28-.46-2.57-.77-3.87l-.21-.86q-.55-2.16-1.24-4.19C464.62,205.23,457.7,197.17,451.34,196.58Z"/><path class="cls-3" d="M162.63,158.64H219l73.52,108v-108h56.87V353.9H292.5L219.37,246.69V353.9H162.63Z"/><rect class="cls-2" x="320.81" y="67.46" width="10.37" height="10.37" transform="translate(44.11 251.79) rotate(-45)"/><polygon class="cls-2" points="113.3 139.56 87.5 136.71 113.3 133.86 116.15 108.06 119 133.86 144.79 136.71 119 139.56 116.15 165.36 113.3 139.56"/><rect class="cls-2" x="110.96" y="373.8" width="10.37" height="10.37" transform="translate(-233.96 193.13) rotate(-45)"/></svg>